<?xml version="1.0" encoding="utf-8"?>
<svg xmlns="http://www.w3.org/2000/svg" xmlns:svg="http://www.w3.org/2000/svg" version="1.1" viewBox="0 0 1400 340">
	<title>The titlepage for the Standard Ebooks edition of Whose Body?, by Dorothy L. Sayers</title>
	<g aria-label="WHOSE BODY?">
		<path d="m 374.52777,130 h 19.46199 l 21.98831,-77.192984 h -19.46199 l -13.19299,52.959064 h -0.46783 L 368.82017,52.807016 H 355.53362 L 341.49853,105.76608 H 341.0307 L 327.83771,52.807016 H 308.28216 L 330.27046,130 h 19.55556 L 362.1769,86.678362 Z"/>
		<path d="m 442.788,99.029239 h 24.88889 V 130 h 17.59065 V 52.807016 H 467.67689 V 83.590642 H 442.788 V 52.807016 H 425.19736 V 130 H 442.788 Z"/>
		<path d="m 498.0073,91.356724 c 0,22.549706 16.09357,40.046786 38.92398,40.046786 22.17544,0 38.83041,-17.49708 38.83041,-40.046786 0,-22.549708 -17.40351,-39.953217 -38.83041,-39.953217 -21.23977,0 -38.92398,17.403509 -38.92398,39.953217 z m 18.99415,0 c 0,-11.508772 6.36257,-23.017544 19.92983,-23.017544 13.66082,0 19.83625,11.508772 19.83625,23.017544 0,11.508776 -5.80117,23.017546 -19.83625,23.017546 -14.40936,0 -19.92983,-11.50877 -19.92983,-23.017546 z"/>
		<path d="m 616.96784,51.403507 c -12.44444,0 -25.16959,9.169591 -25.16959,23.578948 0,8.046784 5.4269,15.251462 14.69006,19.836258 9.16959,4.584795 17.40351,7.111107 17.40351,12.725147 0,7.20468 -7.29825,7.57895 -11.13451,7.57895 -8.60818,0 -18.90058,-8.70176 -18.90058,-8.70176 l -8.79532,14.78363 c 0,0 10.94737,10.19883 29.00585,10.19883 15.06432,0 29.09941,-6.45614 29.09941,-24.88889 0,-10.105264 -9.45029,-17.40351 -18.05848,-21.052632 -8.79532,-3.742691 -16.09357,-6.83041 -16.09357,-11.134504 0,-4.210526 3.18129,-6.923976 9.16959,-6.923976 7.95322,0 15.62574,5.333333 15.62574,5.333333 l 7.11111,-14.035088 c 0,0 -9.91813,-7.298246 -23.95322,-7.298246 z"/>
		<path d="M 700.55262,52.807016 H 656.38887 V 130 h 44.16375 v -15.4386 h -26.5731 V 99.029239 h 25.45029 V 83.590642 H 673.97952 V 68.245613 h 26.5731 z"/>
		<path d="M 746.24999,52.807016 V 130 h 29.28655 c 16,0 25.26316,-8.79532 25.26316,-21.52047 0,-12.444443 -6.83041,-17.777776 -16.46784,-19.461987 6.54971,-3.368421 9.63743,-9.450292 9.63743,-16.561404 0,-14.690058 -10.47954,-19.649123 -23.76609,-19.649123 z m 17.59064,30.222223 V 66.374268 h 1.40351 c 7.67252,0 11.69591,2.339181 11.69591,7.859649 0,6.456141 -4.11696,8.795322 -11.69591,8.795322 z m 0,33.403511 V 98.187134 h 5.52047 c 8.32749,0 12.91228,2.526316 12.91228,9.637426 0,6.08187 -4.58479,8.60819 -12.91228,8.60819 z"/>
		<path d="m 810.10526,91.356724 c 0,22.549706 16.09357,40.046786 38.92398,40.046786 22.17544,0 38.83041,-17.49708 38.83041,-40.046786 0,-22.549708 -17.40351,-39.953217 -38.83041,-39.953217 -21.23977,0 -38.92398,17.403509 -38.92398,39.953217 z m 18.99415,0 c 0,-11.508772 6.36258,-23.017544 19.92983,-23.017544 13.66082,0 19.83626,11.508772 19.83626,23.017544 0,11.508776 -5.80117,23.017546 -19.83626,23.017546 -14.40936,0 -19.92983,-11.50877 -19.92983,-23.017546 z"/>
		<path d="M 900.62136,52.807016 V 130 h 22.36257 c 21.23977,0 38.92398,-16.09357 38.92398,-38.643276 0,-22.45614 -17.77778,-38.549708 -38.92398,-38.549708 z M 918.212,114.2807 V 68.526315 h 2.71345 c 13.09942,0 21.9883,10.011696 21.9883,22.923977 -0.0936,12.912278 -8.98245,22.830408 -21.9883,22.830408 z"/>
		<path d="m 957.87279,52.807016 28.44444,42.5731 V 130 h 17.59067 V 95.380116 l 28.4444,-42.5731 h -21.1462 L 995.11256,77.508771 979.01899,52.807016 Z"/>
		<path d="m 1050.4825,75.730993 c 1.0292,-4.023392 4.3041,-9.637427 11.0409,-9.637427 4.2105,0 7.579,3.181287 7.579,7.672515 0,6.643275 -5.3334,6.923977 -11.041,10.573099 -4.2105,2.713451 -4.3976,6.081872 -4.3976,10.198831 v 10.198829 h 15.4386 v -5.239765 c 0,-3.087719 0.093,-5.707602 3.2748,-7.111111 8.9825,-3.836257 15.8129,-9.450292 15.8129,-18.619883 0,-13.192983 -12.538,-22.362574 -26.5731,-22.362574 -20.8655,0 -24.8889,17.216375 -24.8889,17.684211 z m 10.8538,34.245617 c -5.8948,0 -10.6667,4.77193 -10.6667,10.76023 0,5.89474 4.7719,10.66667 10.6667,10.66667 5.9883,0 10.7602,-4.77193 10.7602,-10.66667 0,-5.9883 -4.7719,-10.76023 -10.7602,-10.76023 z"/>
	</g>
	<g aria-label="DOROTHY L. SAYERS">
		<path d="M 289.00494,232.10526 V 290 h 16.77193 c 15.92982,0 29.19298,-12.07018 29.19298,-28.98246 0,-16.8421 -13.33333,-28.91228 -29.19298,-28.91228 z m 13.19298,46.10527 v -34.31579 h 2.03509 c 9.82456,0 16.49123,7.50877 16.49123,17.19298 -0.0702,9.68421 -6.73685,17.12281 -16.49123,17.12281 z"/>
		<path d="m 343.21766,261.01754 c 0,16.91228 12.07017,30.03509 29.19298,30.03509 16.63158,0 29.12281,-13.12281 29.12281,-30.03509 0,-16.91228 -13.05263,-29.96491 -29.12281,-29.96491 -15.92982,0 -29.19298,13.05263 -29.19298,29.96491 z m 14.24561,0 c 0,-8.63157 4.77193,-17.26315 14.94737,-17.26315 10.24561,0 14.87719,8.63158 14.87719,17.26315 0,8.63158 -4.35087,17.26316 -14.87719,17.26316 -10.80702,0 -14.94737,-8.63158 -14.94737,-17.26316 z"/>
		<path d="M 412.35471,232.10526 V 290 H 425.5477 V 267.12281 L 443.23191,290 h 16.77193 l -19.92983,-23.92982 c 7.08772,-2.24562 11.85965,-8.07018 11.85965,-16.77193 0,-11.36842 -8.14035,-17.19299 -18.87719,-17.19299 z m 13.19299,25.68421 v -15.15789 h 1.54386 c 4.98245,0 10.94737,0.35088 10.94737,7.57895 0,7.22807 -5.96492,7.57894 -10.94737,7.57894 z"/>
		<path d="m 465.05975,261.01754 c 0,16.91228 12.07018,30.03509 29.19298,30.03509 16.63158,0 29.12281,-13.12281 29.12281,-30.03509 0,-16.91228 -13.05263,-29.96491 -29.12281,-29.96491 -15.92982,0 -29.19298,13.05263 -29.19298,29.96491 z m 14.24562,0 c 0,-8.63157 4.77193,-17.26315 14.94736,-17.26315 10.24562,0 14.8772,8.63158 14.8772,17.26315 0,8.63158 -4.35088,17.26316 -14.8772,17.26316 -10.80701,0 -14.94736,-8.63158 -14.94736,-17.26316 z"/>
		<path d="M 528.35472,243.68421 H 542.1091 V 290 h 13.19298 v -46.31579 h 13.75439 v -11.57895 h -40.70175 z"/>
		<path d="M 592.00053,266.77193 H 610.6672 V 290 h 13.19298 V 232.10526 H 610.6672 v 23.08772 H 592.00053 V 232.10526 H 578.80755 V 290 h 13.19298 z"/>
		<path d="m 624.6409,232.10526 21.33333,31.92983 V 290 h 13.19299 v -25.96491 l 21.33333,-31.92983 H 664.6409 l -12.07018,18.52632 -12.07017,-18.52632 z"/>
		<path d="M 725.01042,232.10526 H 711.81744 V 290 h 33.1228 v -11.57895 h -19.92982 z"/>
		<path d="m 764.42819,274.98246 c -4.42106,0 -8,3.57894 -8,8.07017 0,4.42105 3.57894,8 8,8 4.49122,0 8.07017,-3.57895 8.07017,-8 0,-4.49123 -3.57895,-8.07017 -8.07017,-8.07017 z"/>
		<path d="m 830.11348,231.05263 c -9.33333,0 -18.87719,6.8772 -18.87719,17.68421 0,6.03509 4.07017,11.4386 11.01754,14.8772 6.87719,3.43859 13.05263,5.33333 13.05263,9.54385 0,5.40351 -5.47368,5.68422 -8.35088,5.68422 -6.45614,0 -14.17543,-6.52632 -14.17543,-6.52632 l -6.5965,11.08772 c 0,0 8.21053,7.64912 21.75439,7.64912 11.29825,0 21.82456,-4.8421 21.82456,-18.66666 0,-7.57895 -7.08772,-13.05264 -13.54386,-15.78948 -6.59649,-2.80702 -12.07017,-5.12281 -12.07017,-8.35088 0,-3.15789 2.38596,-5.19298 6.87719,-5.19298 5.96491,0 11.7193,4 11.7193,4 l 5.33333,-10.52631 c 0,0 -7.4386,-5.47369 -17.96491,-5.47369 z"/>
		<path d="M 890.33276,232.10526 H 878.12224 L 854.75382,290 h 14.17543 l 4.28071,-11.57895 h 22.03508 L 899.52575,290 h 14.17543 z m 0.42106,34.73685 H 877.70118 L 884.15732,250 h 0.14035 z"/>
		<path d="m 908.27026,232.10526 21.33334,31.92983 V 290 h 13.19298 v -25.96491 l 21.33333,-31.92983 h -15.85965 l -12.07017,18.52632 -12.07018,-18.52632 z"/>
		<path d="M 1004.381,232.10526 H 971.25823 V 290 h 33.12277 v -11.57895 h -19.92978 v -11.64912 h 19.08768 v -11.57895 h -19.08768 v -11.50877 h 19.92978 z"/>
		<path d="M 1016.9654,232.10526 V 290 h 13.193 V 267.12281 L 1047.8426,290 h 16.772 l -19.9299,-23.92982 c 7.0878,-2.24562 11.8597,-8.07018 11.8597,-16.77193 0,-11.36842 -8.1404,-17.19299 -18.8772,-17.19299 z m 13.193,25.68421 v -15.15789 h 1.5439 c 4.9824,0 10.9474,0.35088 10.9474,7.57895 0,7.22807 -5.965,7.57894 -10.9474,7.57894 z"/>
		<path d="m 1093.6004,231.05263 c -9.3334,0 -18.8772,6.8772 -18.8772,17.68421 0,6.03509 4.0701,11.4386 11.0175,14.8772 6.8772,3.43859 13.0526,5.33333 13.0526,9.54385 0,5.40351 -5.4736,5.68422 -8.3508,5.68422 -6.4562,0 -14.1755,-6.52632 -14.1755,-6.52632 l -6.5965,11.08772 c 0,0 8.2106,7.64912 21.7544,7.64912 11.2983,0 21.8246,-4.8421 21.8246,-18.66666 0,-7.57895 -7.0877,-13.05264 -13.5439,-15.78948 -6.5965,-2.80702 -12.0702,-5.12281 -12.0702,-8.35088 0,-3.15789 2.386,-5.19298 6.8772,-5.19298 5.9649,0 11.7193,4 11.7193,4 l 5.3334,-10.52631 c 0,0 -7.4386,-5.47369 -17.9649,-5.47369 z"/>
	</g>
</svg>
